<?xml version="1.0" encoding="iso-8859-1"?>
<!-- Generator: Adobe Illustrator 19.0.0, SVG Export Plug-In . SVG Version: 6.00 Build 0)  -->
<svg version="1.1" id="Capa_1" xmlns="http://www.w3.org/2000/svg" xmlns:xlink="http://www.w3.org/1999/xlink" x="0px" y="0px"
	 viewBox="0 0 364.406 364.406" style="enable-background:new 0 0 364.406 364.406;" xml:space="preserve">
<g>
	<g>
		<g>
			<path d="M318,82.603h-66c-3.2-18-19.2-32-38.4-32h-62.4c-19.2,0-34.8,13.6-38.4,32h-66c-26,0-46.8,21.2-46.8,46.8v137.6
				c0,26,21.2,46.8,46.8,46.8h270.8c26,0,46.8-21.2,46.8-46.8v-137.6C364.8,103.403,343.6,82.603,318,82.603z M151.2,64.603h62.4
				c11.2,0,20.4,7.6,23.6,17.6H127.6C130.8,72.203,140,64.603,151.2,64.603z M318,299.803H46.8c-18,0-32.8-14.8-32.8-32.8v-137.6
				c0-18,14.8-32.8,32.8-32.8h270.8c18,0,32.8,14.8,32.8,32.8v137.6h0.4C350.8,285.003,336,299.803,318,299.803z"/>
			<path d="M182.4,117.803c-44.4,0-80.4,36-80.4,80.4c0,44.4,36,80.4,80.4,80.4c44.4,0,80.4-36,80.4-80.4
				C262.8,153.803,226.8,117.803,182.4,117.803z M182.4,264.203c-36.4,0-66-29.6-66-66c0-36.4,29.6-66,66-66c36.4,0,66,29.6,66,66
				C248.4,234.603,218.8,264.203,182.4,264.203z"/>
			<path d="M182.4,142.603c-30.4,0-55.2,24.8-55.2,55.2c0,30.4,24.8,55.2,55.2,55.2c30.4,0,55.2-24.8,55.2-55.2
				C237.6,167.403,212.8,142.603,182.4,142.603z M182.4,239.403c-22.8,0-41.2-18.4-41.2-41.2s18.4-41.2,41.2-41.2
				s41.2,18.4,41.2,41.2S205.2,239.403,182.4,239.403z"/>
			<path d="M106,125.003c0-4-3.2-7.2-7.2-7.2H48c-4,0-7.2,3.2-7.2,7.2c0,4,3.2,7.2,7.2,7.2h50.8
				C102.8,131.803,106,129.003,106,125.003z"/>
			<circle cx="318.8" cy="130.203" r="11.6"/>
			<circle cx="281.6" cy="130.203" r="11.6"/>
		</g>
	</g>
</g>
<g>
</g>
<g>
</g>
<g>
</g>
<g>
</g>
<g>
</g>
<g>
</g>
<g>
</g>
<g>
</g>
<g>
</g>
<g>
</g>
<g>
</g>
<g>
</g>
<g>
</g>
<g>
</g>
<g>
</g>
</svg>
